<svg xmlns="http://www.w3.org/2000/svg" width="300" height="160" viewBox="0 0 300 160" fill="none">
 <g stroke="#859071" stroke-width="1.15" stroke-linecap="round">
  <path d="M51 92c66 23 142 25 203-33M78 100 48 64m63 43L95 71m52 38 18-43m13 37 23-35m17 21 21-39"/>
  <path d="M62 83C24 98 16 76 26 54c15-17 38-1 45 18-2 6-4 9-9 11Z" fill="#98a180" opacity=".42"/>
  <path d="M67 82 30 58m37 24L26 68m41 14L34 80m27-3L42 53m18 24-2-19" opacity=".6"/>
  <path d="M210 64c4-27 29-33 41-20 15 21-4 36-26 35Z" fill="#a4ae8c" opacity=".38"/>
  <path d="m220 75 25-27m-25 27 32-14m-32 14 16-35" opacity=".55"/>
 </g>
 <g fill="#899772" opacity=".72">
  <path d="M93 103c-21 0-21-17-30-22 22-1 34 5 30 22Zm5 3c-17 18-34 9-39 10 10-19 25-19 39-10Zm22 4c-3-20-20-17-29-27 24-3 35 10 29 27Zm42-4c5-21 21-21 29-29 0 24-13 31-29 29Zm31-8c7 16 22 8 30 11-9-18-18-17-30-11Zm37-20c18 3 20-14 27-19-22 0-26 7-27 19Z"/>
 </g>
 <g fill="#a24450" opacity=".86">
  <path d="M115 92c-12-1-24-13-13-19 11-6 13 9 13 19Zm0 0c-3-13 8-25 14-14 4 7-7 13-14 14Zm0 0c13-7 23 6 12 10-7 3-11-3-12-10Zm0 0c-9 3-13 17-3 17 9-2 7-12 3-17Z"/>
  <path d="M152 117c-14 0-20-13-10-15 8-1 9 9 10 15Zm0 0c-1-17 13-22 16-12 1 8-10 9-16 12Zm0 0c13-6 22 7 12 11-7 2-10-4-12-11Zm0 0c-12 5-10 17-2 15 7-2 6-9 2-15Z"/>
  <path d="M190 87c-12-3-19-17-10-18 8-1 8 10 10 18Zm0 0c0-16 13-21 15-10 1 7-9 10-15 10Zm0 0c11-6 21 5 13 10-8 2-12-5-13-10Z"/>
  <path d="M79 66c-12-6-16-14-13-19 12 1 18 9 13 19Zm151 38c-4 10-1 19 7 19 3-10 1-16-7-19Z" opacity=".6"/>
 </g>
 <g fill="#ae9266"><circle cx="115" cy="92" r="2.4"/><circle cx="152" cy="117" r="2.3"/><circle cx="190" cy="87" r="2"/></g>
</svg>
